<svg xmlns="http://www.w3.org/2000/svg" version="1.1" xmlns:xlink="http://www.w3.org/1999/xlink" xmlns:svgjs="http://svgjs.com/svgjs" width="2000" height="560" preserveAspectRatio="none" viewBox="0 0 2000 560">
    <g mask="url(&quot;#SvgjsMask1346&quot;)" fill="none">
        <path d="M108.14 59.12L180.89 101.12L180.89 185.12L108.14 227.12L35.39 185.12L35.39 101.12zM180.89 185.12L253.63 227.12L253.63 311.12L180.89 353.12L108.14 311.12L108.14 227.12zM180.89 437.12L253.63 479.12L253.63 563.12L180.89 605.12L108.14 563.12L108.14 479.12zM471.88 -66.88L544.63 -24.88L544.63 59.12L471.88 101.12L399.13 59.12L399.13 -24.88zM690.12 59.12L762.87 101.12L762.87 185.12L690.12 227.12L617.38 185.12L617.38 101.12zM617.38 185.12L690.12 227.12L690.12 311.12L617.38 353.12L544.63 311.12L544.63 227.12zM762.87 -66.88L835.62 -24.88L835.62 59.12L762.87 101.12L690.12 59.12L690.12 -24.88zM835.62 59.12L908.37 101.12L908.37 185.12L835.62 227.12L762.87 185.12L762.87 101.12zM835.62 311.12L908.37 353.12L908.37 437.12L835.62 479.12L762.87 437.12L762.87 353.12zM908.37 -66.88L981.12 -24.88L981.12 59.12L908.37 101.12L835.62 59.12L835.62 -24.88zM908.37 185.12L981.12 227.12L981.12 311.12L908.37 353.12L835.62 311.12L835.62 227.12zM1053.86 437.12L1126.61 479.12L1126.61 563.12L1053.86 605.12L981.12 563.12L981.12 479.12zM1272.11 59.12L1344.86 101.12L1344.86 185.12L1272.11 227.12L1199.36 185.12L1199.36 101.12zM1199.36 185.12L1272.11 227.12L1272.11 311.12L1199.36 353.12L1126.61 311.12L1126.61 227.12zM1272.11 311.12L1344.86 353.12L1344.86 437.12L1272.11 479.12L1199.36 437.12L1199.36 353.12zM1344.86 185.12L1417.61 227.12L1417.61 311.12L1344.86 353.12L1272.11 311.12L1272.11 227.12zM1417.61 311.12L1490.35 353.12L1490.35 437.12L1417.61 479.12L1344.86 437.12L1344.86 353.12zM1635.85 -66.88L1708.6 -24.88L1708.6 59.12L1635.85 101.12L1563.1 59.12L1563.1 -24.88zM1635.85 185.12L1708.6 227.12L1708.6 311.12L1635.85 353.12L1563.1 311.12L1563.1 227.12zM1708.6 311.12L1781.35 353.12L1781.35 437.12L1708.6 479.12L1635.85 437.12L1635.85 353.12zM1781.35 -66.88L1854.1 -24.88L1854.1 59.12L1781.35 101.12L1708.6 59.12L1708.6 -24.88zM1781.35 185.12L1854.1 227.12L1854.1 311.12L1781.35 353.12L1708.6 311.12L1708.6 227.12zM1781.35 437.12L1854.1 479.12L1854.1 563.12L1781.35 605.12L1708.6 563.12L1708.6 479.12zM1999.59 311.12L2072.34 353.12L2072.34 437.12L1999.59 479.12L1926.84 437.12L1926.84 353.12z" stroke="#03305d" stroke-width="2"></path>
        <path d="M99.74 59.12 a8.4 8.4 0 1 0 16.8 0 a8.4 8.4 0 1 0 -16.8 0zM172.49 101.12 a8.4 8.4 0 1 0 16.8 0 a8.4 8.4 0 1 0 -16.8 0zM172.49 185.12 a8.4 8.4 0 1 0 16.8 0 a8.4 8.4 0 1 0 -16.8 0zM99.74 227.12 a8.4 8.4 0 1 0 16.8 0 a8.4 8.4 0 1 0 -16.8 0zM26.99 185.12 a8.4 8.4 0 1 0 16.8 0 a8.4 8.4 0 1 0 -16.8 0zM26.99 101.12 a8.4 8.4 0 1 0 16.8 0 a8.4 8.4 0 1 0 -16.8 0zM245.23 227.12 a8.4 8.4 0 1 0 16.8 0 a8.4 8.4 0 1 0 -16.8 0zM245.23 311.12 a8.4 8.4 0 1 0 16.8 0 a8.4 8.4 0 1 0 -16.8 0zM172.49 353.12 a8.4 8.4 0 1 0 16.8 0 a8.4 8.4 0 1 0 -16.8 0zM99.74 311.12 a8.4 8.4 0 1 0 16.8 0 a8.4 8.4 0 1 0 -16.8 0zM172.49 437.12 a8.4 8.4 0 1 0 16.8 0 a8.4 8.4 0 1 0 -16.8 0zM245.23 479.12 a8.4 8.4 0 1 0 16.8 0 a8.4 8.4 0 1 0 -16.8 0zM245.23 563.12 a8.4 8.4 0 1 0 16.8 0 a8.4 8.4 0 1 0 -16.8 0zM172.49 605.12 a8.4 8.4 0 1 0 16.8 0 a8.4 8.4 0 1 0 -16.8 0zM99.74 563.12 a8.4 8.4 0 1 0 16.8 0 a8.4 8.4 0 1 0 -16.8 0zM99.74 479.12 a8.4 8.4 0 1 0 16.8 0 a8.4 8.4 0 1 0 -16.8 0zM463.48 -66.88 a8.4 8.4 0 1 0 16.8 0 a8.4 8.4 0 1 0 -16.8 0zM536.23 -24.88 a8.4 8.4 0 1 0 16.8 0 a8.4 8.4 0 1 0 -16.8 0zM536.23 59.12 a8.4 8.4 0 1 0 16.8 0 a8.4 8.4 0 1 0 -16.8 0zM463.48 101.12 a8.4 8.4 0 1 0 16.8 0 a8.4 8.4 0 1 0 -16.8 0zM390.73 59.12 a8.4 8.4 0 1 0 16.8 0 a8.4 8.4 0 1 0 -16.8 0zM390.73 -24.88 a8.4 8.4 0 1 0 16.8 0 a8.4 8.4 0 1 0 -16.8 0zM681.72 59.12 a8.4 8.4 0 1 0 16.8 0 a8.4 8.4 0 1 0 -16.8 0zM754.47 101.12 a8.4 8.4 0 1 0 16.8 0 a8.4 8.4 0 1 0 -16.8 0zM754.47 185.12 a8.4 8.4 0 1 0 16.8 0 a8.4 8.4 0 1 0 -16.8 0zM681.72 227.12 a8.4 8.4 0 1 0 16.8 0 a8.4 8.4 0 1 0 -16.8 0zM608.98 185.12 a8.4 8.4 0 1 0 16.8 0 a8.4 8.4 0 1 0 -16.8 0zM608.98 101.12 a8.4 8.4 0 1 0 16.8 0 a8.4 8.4 0 1 0 -16.8 0zM681.72 311.12 a8.4 8.4 0 1 0 16.8 0 a8.4 8.4 0 1 0 -16.8 0zM608.98 353.12 a8.4 8.4 0 1 0 16.8 0 a8.4 8.4 0 1 0 -16.8 0zM536.23 311.12 a8.4 8.4 0 1 0 16.8 0 a8.4 8.4 0 1 0 -16.8 0zM536.23 227.12 a8.4 8.4 0 1 0 16.8 0 a8.4 8.4 0 1 0 -16.8 0zM754.47 -66.88 a8.4 8.4 0 1 0 16.8 0 a8.4 8.4 0 1 0 -16.8 0zM827.22 -24.88 a8.4 8.4 0 1 0 16.8 0 a8.4 8.4 0 1 0 -16.8 0zM827.22 59.12 a8.4 8.4 0 1 0 16.8 0 a8.4 8.4 0 1 0 -16.8 0zM681.72 -24.88 a8.4 8.4 0 1 0 16.8 0 a8.4 8.4 0 1 0 -16.8 0zM899.97 101.12 a8.4 8.4 0 1 0 16.8 0 a8.4 8.4 0 1 0 -16.8 0zM899.97 185.12 a8.4 8.4 0 1 0 16.8 0 a8.4 8.4 0 1 0 -16.8 0zM827.22 227.12 a8.4 8.4 0 1 0 16.8 0 a8.4 8.4 0 1 0 -16.8 0zM827.22 311.12 a8.4 8.4 0 1 0 16.8 0 a8.4 8.4 0 1 0 -16.8 0zM899.97 353.12 a8.4 8.4 0 1 0 16.8 0 a8.4 8.4 0 1 0 -16.8 0zM899.97 437.12 a8.4 8.4 0 1 0 16.8 0 a8.4 8.4 0 1 0 -16.8 0zM827.22 479.12 a8.4 8.4 0 1 0 16.8 0 a8.4 8.4 0 1 0 -16.8 0zM754.47 437.12 a8.4 8.4 0 1 0 16.8 0 a8.4 8.4 0 1 0 -16.8 0zM754.47 353.12 a8.4 8.4 0 1 0 16.8 0 a8.4 8.4 0 1 0 -16.8 0zM899.97 -66.88 a8.4 8.4 0 1 0 16.8 0 a8.4 8.4 0 1 0 -16.8 0zM972.72 -24.88 a8.4 8.4 0 1 0 16.8 0 a8.4 8.4 0 1 0 -16.8 0zM972.72 59.12 a8.4 8.4 0 1 0 16.8 0 a8.4 8.4 0 1 0 -16.8 0zM972.72 227.12 a8.4 8.4 0 1 0 16.8 0 a8.4 8.4 0 1 0 -16.8 0zM972.72 311.12 a8.4 8.4 0 1 0 16.8 0 a8.4 8.4 0 1 0 -16.8 0zM1045.46 437.12 a8.4 8.4 0 1 0 16.8 0 a8.4 8.4 0 1 0 -16.8 0zM1118.21 479.12 a8.4 8.4 0 1 0 16.8 0 a8.4 8.4 0 1 0 -16.8 0zM1118.21 563.12 a8.4 8.4 0 1 0 16.8 0 a8.4 8.4 0 1 0 -16.8 0zM1045.46 605.12 a8.4 8.4 0 1 0 16.8 0 a8.4 8.4 0 1 0 -16.8 0zM972.72 563.12 a8.4 8.4 0 1 0 16.8 0 a8.4 8.4 0 1 0 -16.8 0zM972.72 479.12 a8.4 8.4 0 1 0 16.8 0 a8.4 8.4 0 1 0 -16.8 0zM1263.71 59.12 a8.4 8.4 0 1 0 16.8 0 a8.4 8.4 0 1 0 -16.8 0zM1336.46 101.12 a8.4 8.4 0 1 0 16.8 0 a8.4 8.4 0 1 0 -16.8 0zM1336.46 185.12 a8.4 8.4 0 1 0 16.8 0 a8.4 8.4 0 1 0 -16.8 0zM1263.71 227.12 a8.4 8.4 0 1 0 16.8 0 a8.4 8.4 0 1 0 -16.8 0zM1190.96 185.12 a8.4 8.4 0 1 0 16.8 0 a8.4 8.4 0 1 0 -16.8 0zM1190.96 101.12 a8.4 8.4 0 1 0 16.8 0 a8.4 8.4 0 1 0 -16.8 0zM1263.71 311.12 a8.4 8.4 0 1 0 16.8 0 a8.4 8.4 0 1 0 -16.8 0zM1190.96 353.12 a8.4 8.4 0 1 0 16.8 0 a8.4 8.4 0 1 0 -16.8 0zM1118.21 311.12 a8.4 8.4 0 1 0 16.8 0 a8.4 8.4 0 1 0 -16.8 0zM1118.21 227.12 a8.4 8.4 0 1 0 16.8 0 a8.4 8.4 0 1 0 -16.8 0zM1336.46 353.12 a8.4 8.4 0 1 0 16.8 0 a8.4 8.4 0 1 0 -16.8 0zM1336.46 437.12 a8.4 8.4 0 1 0 16.8 0 a8.4 8.4 0 1 0 -16.8 0zM1263.71 479.12 a8.4 8.4 0 1 0 16.8 0 a8.4 8.4 0 1 0 -16.8 0zM1190.96 437.12 a8.4 8.4 0 1 0 16.8 0 a8.4 8.4 0 1 0 -16.8 0zM1409.21 227.12 a8.4 8.4 0 1 0 16.8 0 a8.4 8.4 0 1 0 -16.8 0zM1409.21 311.12 a8.4 8.4 0 1 0 16.8 0 a8.4 8.4 0 1 0 -16.8 0zM1481.95 353.12 a8.4 8.4 0 1 0 16.8 0 a8.4 8.4 0 1 0 -16.8 0zM1481.95 437.12 a8.4 8.4 0 1 0 16.8 0 a8.4 8.4 0 1 0 -16.8 0zM1409.21 479.12 a8.4 8.4 0 1 0 16.8 0 a8.4 8.4 0 1 0 -16.8 0zM1627.45 -66.88 a8.4 8.4 0 1 0 16.8 0 a8.4 8.4 0 1 0 -16.8 0zM1700.2 -24.88 a8.4 8.4 0 1 0 16.8 0 a8.4 8.4 0 1 0 -16.8 0zM1700.2 59.12 a8.4 8.4 0 1 0 16.8 0 a8.4 8.4 0 1 0 -16.8 0zM1627.45 101.12 a8.4 8.4 0 1 0 16.8 0 a8.4 8.4 0 1 0 -16.8 0zM1554.7 59.12 a8.4 8.4 0 1 0 16.8 0 a8.4 8.4 0 1 0 -16.8 0zM1554.7 -24.88 a8.4 8.4 0 1 0 16.8 0 a8.4 8.4 0 1 0 -16.8 0zM1627.45 185.12 a8.4 8.4 0 1 0 16.8 0 a8.4 8.4 0 1 0 -16.8 0zM1700.2 227.12 a8.4 8.4 0 1 0 16.8 0 a8.4 8.4 0 1 0 -16.8 0zM1700.2 311.12 a8.4 8.4 0 1 0 16.8 0 a8.4 8.4 0 1 0 -16.8 0zM1627.45 353.12 a8.4 8.4 0 1 0 16.8 0 a8.4 8.4 0 1 0 -16.8 0zM1554.7 311.12 a8.4 8.4 0 1 0 16.8 0 a8.4 8.4 0 1 0 -16.8 0zM1554.7 227.12 a8.4 8.4 0 1 0 16.8 0 a8.4 8.4 0 1 0 -16.8 0zM1772.95 353.12 a8.4 8.4 0 1 0 16.8 0 a8.4 8.4 0 1 0 -16.8 0zM1772.95 437.12 a8.4 8.4 0 1 0 16.8 0 a8.4 8.4 0 1 0 -16.8 0zM1700.2 479.12 a8.4 8.4 0 1 0 16.8 0 a8.4 8.4 0 1 0 -16.8 0zM1627.45 437.12 a8.4 8.4 0 1 0 16.8 0 a8.4 8.4 0 1 0 -16.8 0zM1772.95 -66.88 a8.4 8.4 0 1 0 16.8 0 a8.4 8.4 0 1 0 -16.8 0zM1845.7 -24.88 a8.4 8.4 0 1 0 16.8 0 a8.4 8.4 0 1 0 -16.8 0zM1845.7 59.12 a8.4 8.4 0 1 0 16.8 0 a8.4 8.4 0 1 0 -16.8 0zM1772.95 101.12 a8.4 8.4 0 1 0 16.8 0 a8.4 8.4 0 1 0 -16.8 0zM1772.95 185.12 a8.4 8.4 0 1 0 16.8 0 a8.4 8.4 0 1 0 -16.8 0zM1845.7 227.12 a8.4 8.4 0 1 0 16.8 0 a8.4 8.4 0 1 0 -16.8 0zM1845.7 311.12 a8.4 8.4 0 1 0 16.8 0 a8.4 8.4 0 1 0 -16.8 0zM1845.7 479.12 a8.4 8.4 0 1 0 16.8 0 a8.4 8.4 0 1 0 -16.8 0zM1845.7 563.12 a8.4 8.4 0 1 0 16.8 0 a8.4 8.4 0 1 0 -16.8 0zM1772.95 605.12 a8.4 8.4 0 1 0 16.8 0 a8.4 8.4 0 1 0 -16.8 0zM1700.2 563.12 a8.4 8.4 0 1 0 16.8 0 a8.4 8.4 0 1 0 -16.8 0zM1991.19 311.12 a8.4 8.4 0 1 0 16.8 0 a8.4 8.4 0 1 0 -16.8 0zM2063.94 353.12 a8.4 8.4 0 1 0 16.8 0 a8.4 8.4 0 1 0 -16.8 0zM2063.94 437.12 a8.4 8.4 0 1 0 16.8 0 a8.4 8.4 0 1 0 -16.8 0zM1991.19 479.12 a8.4 8.4 0 1 0 16.8 0 a8.4 8.4 0 1 0 -16.8 0zM1918.44 437.12 a8.4 8.4 0 1 0 16.8 0 a8.4 8.4 0 1 0 -16.8 0zM1918.44 353.12 a8.4 8.4 0 1 0 16.8 0 a8.4 8.4 0 1 0 -16.8 0z" fill="#03305d"></path>
        <path d="M424.32 599.26L597.53 699.26L597.53 899.26L424.32 999.26L251.11 899.26L251.11 699.26zM770.74 -0.74L943.95 99.26L943.95 299.26L770.74 399.26L597.53 299.26L597.53 99.26zM770.74 599.26L943.95 699.26L943.95 899.26L770.74 999.26L597.53 899.26L597.53 699.26zM1117.16 -0.74L1290.37 99.26L1290.37 299.26L1117.16 399.26L943.95 299.26L943.95 99.26zM1290.37 299.26L1463.58 399.26L1463.58 599.26L1290.37 699.26L1117.16 599.26L1117.16 399.26zM1636.79 299.26L1810 399.26L1810 599.26L1636.79 699.26L1463.58 599.26L1463.58 399.26zM1983.21 299.26L2156.42 399.26L2156.42 599.26L1983.21 699.26L1810 599.26L1810 399.26z" stroke="rgba(0, 0, 0, 0)" stroke-width="2"></path>
    </g>
    <defs>
        <mask id="SvgjsMask1346">
            <rect width="2000" height="560" fill="#ffffff"></rect>
        </mask>
    </defs>
</svg>